<?xml version="1.0" encoding="UTF-8" standalone="no"?>
<svg
   xmlns:dc="http://purl.org/dc/elements/1.1/"
   xmlns:cc="http://creativecommons.org/ns#"
   xmlns:rdf="http://www.w3.org/1999/02/22-rdf-syntax-ns#"
   xmlns:svg="http://www.w3.org/2000/svg"
   xmlns="http://www.w3.org/2000/svg"
   xmlns:sodipodi="http://sodipodi.sourceforge.net/DTD/sodipodi-0.dtd"
   xmlns:inkscape="http://www.inkscape.org/namespaces/inkscape"
   sodipodi:docname="Appliance_Logo.svg"
   inkscape:version="1.0 (4035a4fb49, 2020-05-01)"
   id="svg1205"
   version="1.1"
   viewBox="0 0 23.8125 23.8125"
   height="23.8125mm"
   width="23.8125mm">
  <defs
     id="defs1199" />
  <sodipodi:namedview
     inkscape:window-maximized="1"
     inkscape:window-y="-8"
     inkscape:window-x="-8"
     inkscape:window-height="1377"
     inkscape:window-width="2560"
     fit-margin-bottom="0"
     fit-margin-right="0"
     fit-margin-left="0"
     fit-margin-top="0"
     showgrid="false"
     inkscape:document-rotation="0"
     inkscape:current-layer="layer1"
     inkscape:document-units="mm"
     inkscape:cy="269.85492"
     inkscape:cx="109.93903"
     inkscape:zoom="0.98994949"
     inkscape:pageshadow="2"
     inkscape:pageopacity="0.0"
     borderopacity="1.0"
     bordercolor="#666666"
     pagecolor="#ffffff"
     id="base" />
  <metadata
     id="metadata1202">
    <rdf:RDF>
      <cc:Work
         rdf:about="">
        <dc:format>image/svg+xml</dc:format>
        <dc:type
           rdf:resource="http://purl.org/dc/dcmitype/StillImage" />
        <dc:title></dc:title>
      </cc:Work>
    </rdf:RDF>
  </metadata>
  <g
     transform="translate(-46.302084,-19.843751)"
     id="layer1"
     inkscape:groupmode="layer"
     inkscape:label="Layer 1">
    <g
       transform="matrix(0.26458333,0,0,0.26458333,-5.2916658,-33.46979)"
       style="fill:none;fill-opacity:1;stroke:none;stroke-dasharray:none;stroke-opacity:1"
       id="Canvas_1: Appliances">
      <title
         id="title60">Appliances</title>
      <g
         id="Graphic_56">
        <rect
           id="rect62"
           fill="#ffffff"
           height="90"
           width="90"
           y="201.5"
           x="195" />
      </g>
      <g
         id="Group_52">
        <g
           id="Graphic_55">
          <path
             id="path65"
             fill="#000000"
             d="m 268.384,206.95 h -43.726 c -7.201,0 -13.059,5.832 -13.059,13 v 1.939 h -1.725 c -1.717,0 -3.114,1.393 -3.114,3.104 v 4.149 c 0,1.711 1.397,3.104 3.114,3.104 h 1.725 v 1.245 c 0,0.553 0.448,1 1,1 h 10.697 v 5.488 h -22.179 c -0.552,0 -1,0.447 -1,1 v 11.617 c 0,8.776 4.749,16.78 12.436,21.035 v 2.804 h -7.581 c -2.742,0 -4.972,2.23 -4.972,4.972 v 4.543 c 0,0.553 0.448,1 1,1 h 78 c 0.552,0 1,-0.447 1,-1 v -4.543 c 0,-2.67 -2.121,-4.84 -4.766,-4.951 v -30.472 c 0,-0.553 -0.448,-1 -1,-1 h -1.354 v -10.542 c 4.182,-0.413 7.12,-3.412 7.12,-7.434 v -8.492 c 0,-6.378 -5.211,-11.566 -11.616,-11.566 z m -56.785,23.296 h -1.725 c -0.614,0 -1.114,-0.495 -1.114,-1.104 v -4.149 c 0,-0.608 0.5,-1.104 1.114,-1.104 h 1.725 z m 12.697,18.927 c 1.502,0 3.597,3.764 3.597,9.893 0,6.13 -2.095,9.894 -3.597,9.894 -1.501,0 -3.596,-3.764 -3.596,-9.894 0,-6.13 2.094,-9.893 3.596,-9.893 z m -22.179,3.423 v -10.617 h 21.179 v 5.119 c -5.21,0.589 -9.296,5.725 -9.296,11.957 0,6.625 4.619,12.016 10.296,12.016 5.677,0 10.296,-5.391 10.296,-12.016 0,-6.232 -4.087,-11.368 -9.296,-11.958 v -5.119 h 21.179 v 10.617 c 0,8.23 -4.559,15.723 -11.898,19.551 -0.331,0.173 -0.538,0.514 -0.538,0.887 v 3.401 h -19.486 v -3.401 c 0,-0.373 -0.207,-0.714 -0.538,-0.887 -7.339,-3.827 -11.898,-11.319 -11.898,-19.55 z m 18.394,15.361 c -2.675,-1.665 -4.511,-5.026 -4.511,-8.902 0,-3.884 1.844,-7.25 4.526,-8.912 -1.132,2.145 -1.827,5.289 -1.827,8.921 10e-4,3.617 0.689,6.748 1.812,8.893 z m 7.555,-17.813 c 2.683,1.661 4.527,5.028 4.527,8.912 0,3.876 -1.836,7.237 -4.511,8.902 1.122,-2.145 1.811,-5.276 1.811,-8.892 0,-3.633 -0.695,-6.777 -1.827,-8.922 z m 15.996,26.264 c -0.008,0.008 -0.011,0.019 -0.019,0.027 h -8.003 v -2.804 c 7.687,-4.255 12.436,-12.259 12.436,-21.035 v -11.617 c 0,-0.553 -0.448,-1 -1,-1 h -22.18 v -5.488 h 29.828 v 10.493 h -2.045 c -0.278,0 -0.543,0.116 -0.733,0.319 -0.189,0.204 -0.285,0.478 -0.264,0.755 0.015,0.212 1.454,21.283 -8.02,30.35 z m 30.966,2.027 c 1.639,0 2.972,1.333 2.972,2.972 v 3.543 h -76 v -3.543 c 0,-1.639 1.333,-2.972 2.972,-2.972 z m -1.793,-31.451 v 29.451 h -26.467 c 7.647,-8.994 7.546,-25.107 7.366,-29.451 z m -16.111,-2 v -5.948 h 13.756 v 5.948 z M 278,227.008 c 0,3.229 -2.517,5.483 -6.121,5.483 -0.552,0 -1,0.447 -1,1 v 3.545 h -13.755 v -3.545 c 0,-0.553 -0.448,-1 -1,-1 h -42.525 v -8.602 H 278 Z m 0,-5.119 h -64.401 v -1.939 c 0,-6.065 4.961,-11 11.059,-11 h 43.726 c 5.303,0 9.616,4.291 9.616,9.565 z" />
        </g>
        <g
           id="Graphic_54">
          <path
             id="path68"
             fill="#000000"
             d="m 269.251,212.267 c -2.001,0 -3.629,1.622 -3.629,3.616 0,1.994 1.628,3.616 3.629,3.616 2.001,0 3.629,-1.622 3.629,-3.616 0,-1.994 -1.628,-3.616 -3.629,-3.616 z m 0,5.233 c -0.898,0 -1.629,-0.725 -1.629,-1.616 0,-0.891 0.731,-1.616 1.629,-1.616 0.898,0 1.629,0.725 1.629,1.616 0,0.891 -0.731,1.616 -1.629,1.616 z" />
        </g>
        <g
           id="Graphic_53">
          <path
             id="path71"
             fill="#000000"
             d="m 258.999,212.267 c -2.001,0 -3.629,1.622 -3.629,3.616 0,1.994 1.628,3.616 3.629,3.616 2.001,0 3.629,-1.622 3.629,-3.616 0,-1.994 -1.628,-3.616 -3.629,-3.616 z m 0,5.233 c -0.898,0 -1.629,-0.725 -1.629,-1.616 0,-0.891 0.731,-1.616 1.629,-1.616 0.898,0 1.629,0.725 1.629,1.616 0,0.891 -0.732,1.616 -1.629,1.616 z" />
        </g>
      </g>
    </g>
  </g>
</svg>
